<?xml version="1.0" standalone="no"?>
<!DOCTYPE svg PUBLIC "-//W3C//DTD SVG 20010904//EN"
 "http://www.w3.org/TR/2001/REC-SVG-20010904/DTD/svg10.dtd">
<svg version="1.0" xmlns="http://www.w3.org/2000/svg"
 width="128.000000pt" height="128.000000pt" viewBox="0 0 128.000000 128.000000"
 preserveAspectRatio="xMidYMid meet">

<g transform="translate(0.000000,128.000000) scale(0.100000,-0.100000)"
fill="#000000" stroke="none">
<path d="M435 907 c-115 -199 -218 -377 -228 -395 l-19 -33 118 3 119 3 107
183 c58 101 110 182 115 181 4 -2 94 -152 199 -333 l190 -331 117 -3 c64 -1
117 -1 117 1 0 2 -105 186 -233 408 -128 222 -268 465 -311 539 -43 74 -79
136 -80 137 -1 1 -96 -161 -211 -360z"/>
<path d="M559 498 c-45 -79 -104 -180 -130 -226 -27 -45 -49 -85 -49 -87 0 -3
120 -5 266 -5 146 0 264 4 262 8 -7 19 -260 452 -263 452 -2 0 -40 -64 -86
-142z"/>
<path d="M89 308 c-23 -40 -48 -83 -55 -95 -8 -12 -14 -25 -14 -28 0 -3 52 -4
116 -3 l116 3 54 93 c30 52 54 95 54 98 0 2 -52 4 -115 4 l-114 0 -42 -72z"/>
</g>
</svg>
